<svg xmlns="http://www.w3.org/2000/svg" version="1.1" xmlns:xlink="http://www.w3.org/1999/xlink" xmlns:svgjs="http://svgjs.dev/svgjs" width="1500" height="1500" viewBox="0 0 1500 1500"><rect width="1500" height="1500" fill="#ffffff"></rect><g transform="matrix(0.6666666666666666,0,0,0.6666666666666666,249.39414873293146,576.7025751439907)"><svg viewBox="0 0 396 137" data-background-color="#21232b" preserveAspectRatio="xMidYMid meet" height="518" width="1500" xmlns="http://www.w3.org/2000/svg" xmlns:xlink="http://www.w3.org/1999/xlink"><g id="tight-bounds" transform="matrix(1,0,0,1,0.23991710175914704,0.25023321990335035)"><svg viewBox="0 0 395.52 136.49936776371146" height="136.49936776371146" width="395.52"><g><svg viewBox="0 0 661.6130493967975 228.33172266101352" height="136.49936776371146" width="395.52"><g transform="matrix(1,0,0,1,0,67.46843320936692)"><svg viewBox="0 0 395.52 93.39485624227967" height="93.39485624227967" width="395.52"><g id="textblocktransform"><svg viewBox="0 0 395.52 93.39485624227967" height="93.39485624227967" width="395.52" id="textblock"><g><svg viewBox="0 0 395.52 93.39485624227967" height="93.39485624227967" width="395.52"><g transform="matrix(1,0,0,1,0,0)"><svg width="395.52" viewBox="-1.75 -38.86 207.31 49.72" height="93.39485624227967" data-palette-color="#f4f3f0"><path d="M5.64-13.21L5.64 0 2.25 0 2.25-34.86 10.47-34.86Q14.89-34.86 16.92-33.45 18.95-32.03 19.17-28.76L19.17-28.76Q19.41-26.03 19.41-23.83 19.41-21.63 19.17-19.31L19.17-19.31Q18.95-16.06 16.91-14.64 14.87-13.21 10.38-13.21L10.38-13.21 5.64-13.21ZM10.47-31.74L5.64-31.74 5.64-16.33 10.38-16.33Q13.21-16.33 14.44-17.03 15.67-17.72 15.8-19.17L15.8-19.17Q16.16-24.02 15.8-28.93L15.8-28.93Q15.67-30.37 14.45-31.05 13.23-31.74 10.47-31.74L10.47-31.74ZM28.32 0.27L28.32 0.27Q25.34 0.27 23.91-0.9 22.48-2.08 22.24-4.57L22.24-4.57Q22.21-5.05 22.18-5.54 22.14-6.03 22.19-6.49L22.19-6.49Q22.36-8.67 23.56-10.14 24.75-11.62 28.1-12.84L28.1-12.84Q29.47-13.33 30.98-13.72 32.49-14.11 33.98-14.48L33.98-14.48 33.98-18.99Q33.98-20.19 33.08-20.76 32.18-21.34 29.93-21.34L29.93-21.34Q27.98-21.34 26.96-20.85 25.95-20.36 25.85-19.07L25.85-19.07Q25.8-18.46 25.8-17.32 25.8-16.19 25.85-15.41L25.85-15.41 22.8-15.41Q22.75-16.02 22.7-16.99 22.65-17.97 22.73-18.73L22.73-18.73Q22.85-21.56 24.57-22.81 26.29-24.07 30.05-24.07L30.05-24.07Q33.98-24.07 35.51-22.71 37.03-21.34 37.06-18.21L37.06-18.21 37.06 0 33.98 0 33.98-2.25 33.3-2.25Q32.69-1.03 31.55-0.38 30.42 0.27 28.32 0.27ZM29.1-2.37L29.1-2.37Q32.61-2.37 33.96-4.47L33.96-4.47 33.96-11.87Q32.79-11.62 31.55-11.29 30.32-10.96 28.66-10.4L28.66-10.4Q26.68-9.67 26.02-8.72 25.36-7.76 25.27-6.49L25.27-6.49Q25.29-6.13 25.3-5.7 25.31-5.27 25.36-4.81L25.36-4.81Q25.53-3.64 26.54-3 27.54-2.37 29.1-2.37ZM56-15.41L56-15.41 52.92-15.41Q53.02-16.26 53.01-17.36 53-18.46 53-19.07L53-19.07Q52.97-20.36 51.98-20.85 51-21.34 48.75-21.34L48.75-21.34Q46.45-21.34 45.48-20.85 44.5-20.36 44.48-19.07L44.48-19.07Q44.31-15.23 44.31-11.93 44.31-8.62 44.48-4.81L44.48-4.81Q44.5-3.47 45.48-2.95 46.45-2.44 48.73-2.44L48.73-2.44Q50.97-2.44 51.97-2.95 52.97-3.47 53-4.81L53-4.81Q53-5.47 53.01-6.41 53.02-7.35 52.92-8.47L52.92-8.47 56-8.47Q56.12-7.76 56.11-6.82 56.1-5.88 56.05-5.13L56.05-5.13Q55.9-2.25 54.26-0.98 52.61 0.29 48.73 0.29L48.73 0.29Q44.82 0.29 43.12-0.98 41.43-2.25 41.3-5.13L41.3-5.13Q41.21-6.93 41.17-9.38 41.13-11.82 41.17-14.28 41.21-16.75 41.3-18.58L41.3-18.58Q41.43-21.53 43.15-22.8 44.87-24.07 48.75-24.07L48.75-24.07Q52.61-24.07 54.3-22.83 56-21.58 56.05-18.73L56.05-18.73Q56.1-17.99 56.11-17.05 56.12-16.11 56-15.41ZM63.05-7.89L63.05 0 60 0 60-31.69 63.01-31.69 63.01-23.88 62.74-13.53 63.57-13.53 65.93-18.14 69.6-23.75 72.92-23.75 66.86-14.18 74.33 0 71.04 0 65.01-10.5 63.05-7.89ZM82.27 0.27L82.27 0.27Q79.29 0.27 77.86-0.9 76.43-2.08 76.19-4.57L76.19-4.57Q76.16-5.05 76.13-5.54 76.09-6.03 76.14-6.49L76.14-6.49Q76.31-8.67 77.5-10.14 78.7-11.62 82.05-12.84L82.05-12.84Q83.41-13.33 84.93-13.72 86.44-14.11 87.93-14.48L87.93-14.48 87.93-18.99Q87.93-20.19 87.03-20.76 86.12-21.34 83.88-21.34L83.88-21.34Q81.92-21.34 80.91-20.85 79.9-20.36 79.8-19.07L79.8-19.07Q79.75-18.46 79.75-17.32 79.75-16.19 79.8-15.41L79.8-15.41 76.75-15.41Q76.7-16.02 76.65-16.99 76.6-17.97 76.67-18.73L76.67-18.73Q76.8-21.56 78.52-22.81 80.24-24.07 84-24.07L84-24.07Q87.93-24.07 89.46-22.71 90.98-21.34 91.01-18.21L91.01-18.21 91.01 0 87.93 0 87.93-2.25 87.25-2.25Q86.64-1.03 85.5-0.38 84.37 0.27 82.27 0.27ZM83.05-2.37L83.05-2.37Q86.56-2.37 87.91-4.47L87.91-4.47 87.91-11.87Q86.73-11.62 85.5-11.29 84.27-10.96 82.61-10.4L82.61-10.4Q80.63-9.67 79.97-8.72 79.31-7.76 79.21-6.49L79.21-6.49Q79.24-6.13 79.25-5.7 79.26-5.27 79.31-4.81L79.31-4.81Q79.48-3.64 80.48-3 81.48-2.37 83.05-2.37ZM102.18 6.86L102.18 6.86Q98.86 6.86 96.84 6.03 94.81 5.2 94.69 3.42L94.69 3.42Q94.69 3.22 94.67 2.95 94.64 2.69 94.64 2.39L94.64 2.39Q94.74 1.32 95.73 0.66 96.72 0 98.01-0.15L98.01-0.15 98.01-0.76Q95.59-1.27 95.52-2.86L95.52-2.86Q95.5-3.27 95.52-3.69L95.52-3.69Q95.54-4.52 96.29-5.08 97.03-5.64 97.96-5.74L97.96-5.74 97.96-6.35Q95.42-7.45 95.25-11.21L95.25-11.21Q95.18-12.67 95.14-13.76 95.1-14.84 95.13-15.95 95.15-17.07 95.25-18.58L95.25-18.58Q95.37-21.48 96.95-22.78 98.52-24.07 101.99-24.07L101.99-24.07Q104.53-24.07 106.02-23.49 107.51-22.9 108.17-21.66L108.17-21.66 108.85-21.66Q109.02-23.75 112-23.75L112-23.75 112-21.02 111.14-21.02Q108.97-21.02 108.87-18.51L108.87-18.51 108.83-16.58Q108.87-15.16 108.87-14.01 108.87-12.87 108.73-11.21L108.73-11.21Q108.61-8.25 107.07-6.98 105.53-5.71 101.99-5.71L101.99-5.71Q99.94-5.74 99.01-5.4 98.08-5.05 98.08-4.27L98.08-4.27 98.08-4.08Q98.13-3.37 99.11-3.08 100.09-2.78 102.36-2.73L102.36-2.73Q105.99-2.64 107.93-1.7 109.88-0.76 110.05 1.42L110.05 1.42 110.05 2.69Q109.88 4.98 107.7 5.92 105.53 6.86 102.18 6.86ZM101.99-8.47L101.99-8.47Q103.94-8.47 104.76-9.01 105.58-9.55 105.65-10.77L105.65-10.77Q105.77-12.5 105.77-14.81 105.77-17.11 105.65-19.02L105.65-19.02Q105.58-20.31 104.75-20.83 103.92-21.34 101.99-21.34L101.99-21.34Q100.06-21.34 99.23-20.81 98.4-20.29 98.3-18.99L98.3-18.99Q98.03-14.36 98.3-10.82L98.3-10.82Q98.4-9.62 99.26-9.05 100.11-8.47 101.99-8.47ZM102.26 4.27L102.26 4.27Q104.36 4.27 105.69 3.88 107.02 3.49 107.12 2.49L107.12 2.49Q107.14 2.22 107.13 1.99 107.12 1.76 107.12 1.51L107.12 1.51Q107.02 0.46 105.71 0.16 104.41-0.15 102.26-0.2L102.26-0.2Q100.18-0.24 98.95 0.12 97.72 0.49 97.59 1.54L97.59 1.54 97.59 2.49Q97.72 3.56 98.96 3.92 100.21 4.27 102.26 4.27ZM121.69 0.29L121.69 0.29Q117.66 0.29 115.94-0.98 114.22-2.25 114.1-5.13L114.1-5.13Q114-6.93 113.96-9.38 113.93-11.82 113.96-14.28 114-16.75 114.1-18.58L114.1-18.58Q114.22-21.53 115.99-22.8 117.76-24.07 121.69-24.07L121.69-24.07Q125.4-24.07 127.06-22.83 128.72-21.58 128.89-18.73L128.89-18.73Q128.94-17.87 128.99-15.75 129.04-13.62 128.84-11.23L128.84-11.23 117.15-11.23Q117.15-9.69 117.17-8.11 117.2-6.52 117.27-4.81L117.27-4.81Q117.29-3.47 118.3-2.95 119.3-2.44 121.59-2.44L121.59-2.44Q123.86-2.44 124.79-2.95 125.72-3.47 125.82-4.81L125.82-4.81Q125.89-6.15 125.82-8.47L125.82-8.47 128.84-8.47Q128.96-7.76 128.95-6.82 128.94-5.88 128.89-5.13L128.89-5.13Q128.72-2.25 127.15-0.98 125.57 0.29 121.69 0.29ZM117.15-13.82L117.15-13.82 125.86-13.82Q125.91-15.48 125.91-16.99 125.91-18.51 125.82-19.07L125.82-19.07Q125.72-20.29 124.77-20.81 123.81-21.34 121.69-21.34L121.69-21.34Q119.32-21.34 118.31-20.81 117.29-20.29 117.27-19.07L117.27-19.07Q117.2-17.65 117.16-16.36 117.12-15.06 117.15-13.82ZM147.13-3.13L147.13 0 132.94 0 132.94-34.86 136.34-34.86 136.34-3.13 147.13-3.13ZM157.04 0.29L157.04 0.29Q153.06 0.29 151.42-1.07 149.78-2.44 149.66-5.62L149.66-5.62Q149.52-7.42 149.47-9.63 149.42-11.84 149.47-14.09 149.52-16.33 149.66-18.16L149.66-18.16Q149.78-21.34 151.43-22.71 153.08-24.07 157.04-24.07L157.04-24.07Q161.04-24.07 162.64-22.71 164.24-21.34 164.36-18.16L164.36-18.16Q164.51-16.36 164.56-14.15 164.6-11.94 164.56-9.7 164.51-7.47 164.36-5.62L164.36-5.62Q164.24-2.47 162.64-1.09 161.04 0.29 157.04 0.29ZM157.04-2.44L157.04-2.44Q159.28-2.44 160.23-2.99 161.19-3.54 161.26-4.81L161.26-4.81Q161.5-8.62 161.5-11.89 161.5-15.16 161.26-18.97L161.26-18.97Q161.19-20.26 160.26-20.8 159.33-21.34 157.04-21.34L157.04-21.34Q154.74-21.34 153.8-20.8 152.86-20.26 152.79-18.97L152.79-18.97Q152.57-15.16 152.56-11.88 152.54-8.59 152.79-4.81L152.79-4.81Q152.84-3.54 153.83-2.99 154.81-2.44 157.04-2.44ZM183.23-15.41L183.23-15.41 180.15-15.41Q180.25-16.26 180.24-17.36 180.23-18.46 180.23-19.07L180.23-19.07Q180.2-20.36 179.21-20.85 178.22-21.34 175.98-21.34L175.98-21.34Q173.68-21.34 172.71-20.85 171.73-20.36 171.71-19.07L171.71-19.07Q171.54-15.23 171.54-11.93 171.54-8.62 171.71-4.81L171.71-4.81Q171.73-3.47 172.71-2.95 173.68-2.44 175.95-2.44L175.95-2.44Q178.2-2.44 179.2-2.95 180.2-3.47 180.23-4.81L180.23-4.81Q180.23-5.47 180.24-6.41 180.25-7.35 180.15-8.47L180.15-8.47 183.23-8.47Q183.35-7.76 183.34-6.82 183.33-5.88 183.28-5.13L183.28-5.13Q183.13-2.25 181.48-0.98 179.84 0.29 175.95 0.29L175.95 0.29Q172.05 0.29 170.35-0.98 168.65-2.25 168.53-5.13L168.53-5.13Q168.43-6.93 168.4-9.38 168.36-11.82 168.4-14.28 168.43-16.75 168.53-18.58L168.53-18.58Q168.65-21.53 170.38-22.8 172.1-24.07 175.98-24.07L175.98-24.07Q179.84-24.07 181.53-22.83 183.23-21.58 183.28-18.73L183.28-18.73Q183.33-17.99 183.34-17.05 183.35-16.11 183.23-15.41ZM190.28-7.89L190.28 0 187.23 0 187.23-31.69 190.23-31.69 190.23-23.88 189.97-13.53 190.8-13.53 193.16-18.14 196.83-23.75 200.15-23.75 194.09-14.18 201.56 0 198.27 0 192.24-10.5 190.28-7.89Z" opacity="1" transform="matrix(1,0,0,1,0,0)" fill="#000000" class="wordmark-text-0" data-fill-palette-color="primary" id="text-0"></path></svg></g></svg></g></svg></g></svg></g><g transform="matrix(1,0,0,1,433.2813267357839,0)"><svg viewBox="0 0 228.33172266101352 228.33172266101352" height="228.33172266101352" width="228.33172266101352"><g><svg></svg></g><g id="icon-0"><svg viewBox="0 0 228.33172266101352 228.33172266101352" height="228.33172266101352" width="228.33172266101352"><g><path d="M0 114.166c0-63.052 51.114-114.166 114.166-114.166 63.052 0 114.166 51.114 114.166 114.166 0 63.052-51.114 114.166-114.166 114.166-63.052 0-114.166-51.114-114.166-114.166zM114.166 221.119c59.069 0 106.953-47.885 106.953-106.953 0-59.069-47.885-106.953-106.953-106.954-59.069 0-106.953 47.885-106.954 106.954 0 59.069 47.885 106.953 106.954 106.953z" data-fill-palette-color="accent" fill="#000000" stroke="transparent"></path></g><g transform="matrix(1,0,0,1,58.353123025140114,47.180306641716385)"><svg viewBox="0 0 111.62547661073329 133.97110937758075" height="133.97110937758075" width="111.62547661073329"><g><svg xmlns="http://www.w3.org/2000/svg" xmlns:xlink="http://www.w3.org/1999/xlink" version="1.1" x="0" y="0" viewBox="11.994 4.979 75.006 90.021" enable-background="new 0 0 100 100" xml:space="preserve" height="133.97110937758075" width="111.62547661073329" class="icon-dxe-0" data-fill-palette-color="accent" id="dxe-0"><path d="M49.497 4.979L11.994 27.484V72.496L49.497 95 87 72.497V27.484zM49.497 12.349L60.023 18.666 31.097 35.149 21.247 29.304zM46.702 85.95L18.139 68.81V34.81L27.622 40.437V49.99L33.255 53.269V43.78L46.703 51.76V85.95zM36.957 38.626L65.557 21.987 77.854 29.367 49.81 46.254zM80.859 68.809L52.843 85.62V51.807L80.859 34.935z" fill="#000000" data-fill-palette-color="accent"></path></svg></g></svg></g></svg></g></svg></g></svg></g><defs></defs></svg><rect width="395.52" height="136.49936776371146" fill="none" stroke="none" visibility="hidden"></rect></g></svg></g></svg>